<svg id="scooter.svg" xmlns="http://www.w3.org/2000/svg" width="403.875" height="151.87" viewBox="0 0 403.875 151.87">
  <defs>
    <style>
      .cls-1 {
        fill: none;
        stroke: #ffd800;
        stroke-width: 1px;
        fill-rule: evenodd;
      }
    </style>
  </defs>
  <path class="cls-1" d="M463.581,3415.01s-8.8-4.02-14.316-11.85c-3.83-5.43-7.278-13.51-10.965-19.74-8.606-14.55-14.762-25.78-30.46-27.34-16.671-1.67-35.24,12.3-46.3,21.57a143.241,143.241,0,0,1-22.429,15.65,89.2,89.2,0,0,1-18.691,7.74" transform="translate(-234.625 -3291.63)"/>
  <path class="cls-1" d="M621.665,3322.35s9.37,6.52,12.793,25.22c1.371,7.49,4.9,29.49,1.218,44.35-2.807,11.34-12.7,31.15-23.149,37.68-8.571,5.35-18.275-1.52-18.275-1.52" transform="translate(-234.625 -3291.63)"/>
  <path class="cls-1" d="M463.276,3414.71l78.281,5.77" transform="translate(-234.625 -3291.63)"/>
  <path class="cls-1" d="M320.727,3401.04l-53.609-4.56,41.425-92.05-2.741-8.51,63.355,0.91" transform="translate(-234.625 -3291.63)"/>
  <path class="cls-1" d="M306.715,3296.53s-15.066-6.02-30.958-2c-13.942,3.52-28.589,16.48-33.311,28.74-5.481,14.23-9.463,35.88-3.013,53.15a66.693,66.693,0,0,0,10.123,18.02,58.548,58.548,0,0,0,15.43,13.28" transform="translate(-234.625 -3291.63)"/>
  <path class="cls-1" d="M308.848,3303.82a40.289,40.289,0,0,0-20.558,3.77c-8.72,4.18-17.23,13.05-21.476,22.66-4.031,9.12-7.655,20.43-7.167,31.06,0.831,18.11,7.776,35.17,7.776,35.17" transform="translate(-234.625 -3291.63)"/>
  <path class="cls-1" d="M298.187,3328.13a15.98,15.98,0,0,0-8.238,2.52,27,27,0,0,0-10.054,11.88c-1.712,4.25-3.268,9.9-3.04,14.48,0.362,7.25,3.361,10.91,3.361,10.91" transform="translate(-234.625 -3291.63)"/>
  <path class="cls-1" d="M299.4,3294.4a86.094,86.094,0,0,0-22.48,8.1c-9.376,5.01-19.132,12.88-23.513,23.8-4.412,11-5.914,25.9-4.08,38.36a105.469,105.469,0,0,0,9.562,30.3" transform="translate(-234.625 -3291.63)"/>
  <path class="cls-1" d="M284.48,3293.19s-32.365,12-39.9,35.85c-3.637,11.51-5.705,25.36-3.469,37.26a98.19,98.19,0,0,0,10.171,27.75" transform="translate(-234.625 -3291.63)"/>
  <path class="cls-1" d="M258.894,3395.27l-7.919-1.22" transform="translate(-234.625 -3291.63)"/>
  <path class="cls-1" d="M264.682,3407.72l73.407,9.12" transform="translate(-234.625 -3291.63)"/>
  <path class="cls-1" d="M254.63,3399.82l81.326,6.99" transform="translate(-234.625 -3291.63)"/>
  <path class="cls-1" d="M335.043,3407.11c0.159-1.02,16.73-1.11,29.913-12.81,5.836-5.17,19.147-13.7,25.976-15.73a50.8,50.8,0,0,1,17.213-1.84" transform="translate(-234.625 -3291.63)"/>
  <path class="cls-1" d="M414.542,3385.85s-14.763,1.79-22.236,8.5c-8,7.2-17.259,13.61-27.4,17.69-15.029,6.06-27.122,5.1-27.122,5.1" transform="translate(-234.625 -3291.63)"/>
  <path class="cls-1" d="M369.157,3296.83a42.727,42.727,0,0,1,17.057,8.81c6.5,5.51,11.154,12.09,15.535,17.93,4.9,6.54,15.229,13.67,15.229,13.67" transform="translate(-234.625 -3291.63)"/>
  <path class="cls-1" d="M417.587,3337.54s-11.654,10.97-11.879,22.79c-0.1,5.13-.315,10.79,1.828,15.19a32.6,32.6,0,0,0,7.919,10.02" transform="translate(-234.625 -3291.63)"/>
  <path class="cls-1" d="M415.151,3336.63a41.726,41.726,0,0,0,10.66,1.52c2.685-.04,9.83-0.42,13.836-2.52,7.966-4.17,16-9.66,25.135-15.14,10.051-6.02,20.48-13.23,28.053-16.74,7.649-3.55,12.475-3.88,12.475-3.88" transform="translate(-234.625 -3291.63)"/>
  <path class="cls-1" d="M567.752,3300.48s-31.145-.16-49.146-0.07c-8.221.04-13.3-.23-13.3-0.23" transform="translate(-234.625 -3291.63)"/>
  <path class="cls-1" d="M469.977,3424.13s-5.634.41-13.168-7.34c-8.416-8.65-19.278-26.21-28.836-33.46a30.394,30.394,0,0,0-19.828-6.29" transform="translate(-234.625 -3291.63)"/>
  <path class="cls-1" d="M414.237,3385.54s10.471-2.44,18.3,3.48c4.221,3.19,8.267,7.96,12.717,14.46,4.559,6.66,9.526,15.05,14.262,19.03,10.653,8.96,17.166,10.12,17.166,10.12" transform="translate(-234.625 -3291.63)"/>
  <path class="cls-1" d="M469.368,3423.82l112.4,10.64" transform="translate(-234.625 -3291.63)"/>
  <path class="cls-1" d="M585.723,3441.75a79.011,79.011,0,0,1-20.6,1.03c-31.666-2.12-88.441-9.84-88.441-9.84" transform="translate(-234.625 -3291.63)"/>
  <path class="cls-1" d="M541.252,3420.79a70.511,70.511,0,0,1-5.83-12.23c-1.683-4.42-1.8-9.76-2.824-15.67-1.749-10.09-1.129-19.41-.467-31.01,1.123-19.69,13.056-40.87,22.219-52.29,7.661-9.54,29.167-16.61,42.646-14.41,19.914,3.26,31.675,19.58,31.675,19.58h-0.914s-13.046-11.79-23.149-10.33c-4.4.64-13.474,6.28-18.922,13.89a99.807,99.807,0,0,0-14.245,32.58c-1.779,8.23-5.033,28.19-1.429,47.09a143.285,143.285,0,0,0,15.711,43.45" transform="translate(-234.625 -3291.63)"/>
  <path class="cls-1" d="M628.366,3314.76s0.165,3.11-1.523,4.86c-1.949,2.02-6.092,2.73-6.092,2.73" transform="translate(-234.625 -3291.63)"/>
  <path class="cls-1" d="M621.97,3323.27a22.988,22.988,0,0,0-8.225-2.44,19.772,19.772,0,0,0-10.66,2.44c-8.662,4.9-13.4,17.01-13.4,17.01a105.686,105.686,0,0,0-5.178,18.23c-0.973,5.33-3.325,18.23-1.281,30.72a81.22,81.22,0,0,0,8.591,25.48" transform="translate(-234.625 -3291.63)"/>
  <path class="cls-1" d="M591.51,3414.41a39.493,39.493,0,0,1,2.437,10.02,32.264,32.264,0,0,1-.609,8.81c-1.237,6.24-8.529,8.51-8.529,8.51" transform="translate(-234.625 -3291.63)"/>
  <path class="cls-1" d="M625.929,3319.62c0.205-.87,5.989,5.68,9.138,18.84,1.794,7.49,2.642,16.86,2.879,25.53,0.157,5.7.225,20.89-2.27,31.28-1.122,4.67-2.773,13.64-7,21.26a57.272,57.272,0,0,1-18.885,22.18c-9.187,6.96-24.368,2.73-24.368,2.73" transform="translate(-234.625 -3291.63)"/>
  <path class="cls-1" d="M621.665,3326.3c-0.08-.37,12.952,11.17,15.839,31.29,1.283,8.95-.585,37.2-6.092,49.22-2.905,6.34-10.56,14.5-16.753,14.58-3.93.05-13.69-3.96-18.275-13.06-2.53-5.02-6.707-18.55-6.092-31.6,0.36-7.64,1.96-23.33,7-33.72,2.863-5.89,7.831-14.65,13.1-17.62,4.984-2.81,11.27.91,11.27,0.91" transform="translate(-234.625 -3291.63)"/>
  <path class="cls-1" d="M596.688,3295.32s-13.413,6.62-21.321,15.79c-4.022,4.67-11.52,15.2-15.23,26.74a141.632,141.632,0,0,0-6.092,36.15c-0.17,7.94-.307,18.9,1.523,28.25a95.063,95.063,0,0,0,6.4,20.05" transform="translate(-234.625 -3291.63)"/>
  <path class="cls-1" d="M579.936,3296.53s-17.958,13.2-25.586,28.56c-3.582,7.21-8.6,22.09-9.747,37.06-0.682,8.92-1.866,22.98-.3,33.42a108.173,108.173,0,0,0,7.006,25.52" transform="translate(-234.625 -3291.63)"/>
  <path class="cls-1" d="M551,3420.79l10.661,1.51" transform="translate(-234.625 -3291.63)"/>
  <path class="cls-1" d="M420.024,3337.85s-9.087,8.06-11.27,17.31c-2.078,8.82,1.523,20.06,1.523,20.06" transform="translate(-234.625 -3291.63)"/>
  <path class="cls-1" d="M433.731,3337.54s4.653,7.69,1.828,12.76c-5.864,10.53-20.713,25.52-20.713,25.52" transform="translate(-234.625 -3291.63)"/>
  <path class="cls-1" d="M414.542,3375.82l-4.569-.3" transform="translate(-234.625 -3291.63)"/>
  <path class="cls-1" d="M415.76,3336.94s-9.54,4.82-12.184,13.97c-2.833,9.81.3,24.31,0.3,24.31" transform="translate(-234.625 -3291.63)"/>
  <path class="cls-1" d="M414.846,3336.02s-14.627-2.66-21.931.61c-3.875,1.74-10.728,7.84-10.965,15.19-0.079,2.46-.9,7.95,2.437,11.55,6.314,6.81,19.8,11.54,19.8,11.54" transform="translate(-234.625 -3291.63)"/>
  <path class="cls-1" d="M326.514,3304.13s-7.579-.54-9.442.6c-2.084,1.28-37.161,77.17-37.161,77.17l0.61,4.25,36.855,3.95s12.2-.41,21.322-5.16c8.354-4.35,14.316-13.67,14.316-13.67l19.189-42.23s1.954-10.14-1.827-15.8c-3.833-5.73-14.012-8.51-14.012-8.51Z" transform="translate(-234.625 -3291.63)"/>
  <path class="cls-1" d="M281.13,3381.59l37.769,2.74s9.355-.91,16.753-4.56a41.923,41.923,0,0,0,12.184-9.72l18.884-42.23s0.046-6.76-2.741-11.24c-2.694-4.33-8.224-6.38-8.224-6.38l-40.511-2.13" transform="translate(-234.625 -3291.63)"/>
  <path class="cls-1" d="M350.577,3309.9l14.011,7.29" transform="translate(-234.625 -3291.63)"/>
  <path class="cls-1" d="M366.72,3324.78l-32.287-15.49" transform="translate(-234.625 -3291.63)"/>
  <path class="cls-1" d="M316.158,3308.07l50.562,20.36" transform="translate(-234.625 -3291.63)"/>
  <path class="cls-1" d="M313.112,3312.94l52.085,19.14" transform="translate(-234.625 -3291.63)"/>
  <path class="cls-1" d="M310.066,3318.71l53.608,16.1" transform="translate(-234.625 -3291.63)"/>
  <path class="cls-1" d="M307.325,3324.48l54.827,13.98" transform="translate(-234.625 -3291.63)"/>
  <path class="cls-1" d="M304.888,3329.04l56.045,11.85" transform="translate(-234.625 -3291.63)"/>
  <path class="cls-1" d="M360.019,3343.92l-57.872-8.2" transform="translate(-234.625 -3291.63)"/>
  <path class="cls-1" d="M358.8,3346.35l-59.4-5.77" transform="translate(-234.625 -3291.63)"/>
  <path class="cls-1" d="M357.278,3349.7l-60.614-3.35" transform="translate(-234.625 -3291.63)"/>
  <path class="cls-1" d="M355.45,3353.34l-61.527-.91" transform="translate(-234.625 -3291.63)"/>
  <path class="cls-1" d="M354.537,3356.08l-63.356,2.12" transform="translate(-234.625 -3291.63)"/>
  <path class="cls-1" d="M352.709,3359.72l-63.66,3.34" transform="translate(-234.625 -3291.63)"/>
  <path class="cls-1" d="M351.491,3362.15l-65.792,7.9" transform="translate(-234.625 -3291.63)"/>
  <path class="cls-1" d="M350.272,3365.49l-67.01,10.03" transform="translate(-234.625 -3291.63)"/>
  <path class="cls-1" d="M349.054,3368.23l-68.838,13.67" transform="translate(-234.625 -3291.63)"/>
  <path class="cls-1" d="M344.79,3373.7l-41.73,9.72" transform="translate(-234.625 -3291.63)"/>
  <path class="cls-1" d="M339.916,3377.65l-23.453,6.68" transform="translate(-234.625 -3291.63)"/>
  <path class="cls-1" d="M554.045,3310.51H508.661s-11.387,1.27-20.408,6.68c-10.377,6.23-18.58,16.71-18.58,16.71l-16.753,44.05s-0.829,7.6,2.132,12.46c3.789,6.21,14.012,11.24,14.012,11.24a96.533,96.533,0,0,0,12.458,3.26c9.035,1.75,20.438,3.12,20.438,3.12l25.89,2.12,7.006-4.25" transform="translate(-234.625 -3291.63)"/>
  <path class="cls-1" d="M551.608,3313.54H506.833a48.225,48.225,0,0,0-17.057,6.08,78.338,78.338,0,0,0-15.839,13.67l-16.448,43.75s-0.919,7.67,3.678,12.67c5.391,5.87,16.425,9.2,16.425,9.2a134.536,134.536,0,0,0,17.864,3.02c13.961,1.38,31.176,1.84,31.176,1.84l7.006-4.55" transform="translate(-234.625 -3291.63)"/>
  <path class="cls-1" d="M480.334,3326.61l46.907-13.37" transform="translate(-234.625 -3291.63)"/>
  <path class="cls-1" d="M540.643,3313.54l-64.878,17.93" transform="translate(-234.625 -3291.63)"/>
  <path class="cls-1" d="M472.719,3336.33l73.407-14.58" transform="translate(-234.625 -3291.63)"/>
  <path class="cls-1" d="M543.689,3326L471.2,3339.67" transform="translate(-234.625 -3291.63)"/>
  <path class="cls-1" d="M540.034,3334.2l-70.361,9.72" transform="translate(-234.625 -3291.63)"/>
  <path class="cls-1" d="M537.293,3340.89l-68.534,5.77" transform="translate(-234.625 -3291.63)"/>
  <path class="cls-1" d="M535.16,3347.27L467.541,3350" transform="translate(-234.625 -3291.63)"/>
  <path class="cls-1" d="M533.638,3352.73H466.322" transform="translate(-234.625 -3291.63)"/>
  <path class="cls-1" d="M532.724,3359.42l-67.925-2.74" transform="translate(-234.625 -3291.63)"/>
  <path class="cls-1" d="M532.115,3366.1l-68.229-6.38" transform="translate(-234.625 -3291.63)"/>
  <path class="cls-1" d="M531.505,3374.61l-68.533-12.15" transform="translate(-234.625 -3291.63)"/>
  <path class="cls-1" d="M531.505,3380.68l-69.752-15.49" transform="translate(-234.625 -3291.63)"/>
  <path class="cls-1" d="M532.419,3390.41l-72.188-20.66" transform="translate(-234.625 -3291.63)"/>
  <path class="cls-1" d="M533.333,3397.7l-74.321-24.92" transform="translate(-234.625 -3291.63)"/>
  <path class="cls-1" d="M523.89,3403.77l-66.1-27.64" transform="translate(-234.625 -3291.63)"/>
  <path class="cls-1" d="M507.138,3403.16l-49.953-23.69" transform="translate(-234.625 -3291.63)"/>
  <path class="cls-1" d="M608.567,3331.77l4.265,26.43s-0.1,5.34-1.219,6.38c-1.162,1.08-3.35-2.12-3.35-2.12l-9.443-15.5a35.244,35.244,0,0,0-4.873,12.46c-1.268,7.58,0,16.71,0,16.71l13.1-1.22s2.288,0.43,2.436,2.13c0.157,1.79-1.827,4.86-1.827,4.86l-11.879,16.4a8.085,8.085,0,0,0,0,3.35,32.437,32.437,0,0,0,4.386,8.3c1.029,1.44,4.9,6.43,6.884,5.97,2.341-.53,5.482-27.64,5.482-27.64" transform="translate(-234.625 -3291.63)"/>
  <path class="cls-1" d="M612.832,3388.28s0.789-2.74,1.827-2.74c0.937,0,2.437,3.04,2.437,3.04s1.02,5,1.828,10.64c1,6.97,1.827,14.88,1.827,14.88a6.634,6.634,0,0,0,3.046-.91c0.824-.52,4.147-5.46,6.4-10.03a23.391,23.391,0,0,0,2.132-7.59l-11.879-16.1s-0.809-1.87,0-3.04c0.865-1.25,3.35-1.82,3.35-1.82h11.575a88.642,88.642,0,0,0,.3-15.5,45.126,45.126,0,0,0-3.046-12.45,53.556,53.556,0,0,1-3.959,7.59,103.013,103.013,0,0,1-7.615,9.42s-1.789.97-2.437-.61c-0.719-1.75-.305-6.07-0.305-6.07l5.179-26.13s-4.078-3.32-7.615-3.04c-4.044.32-7.311,4.26-7.311,4.26" transform="translate(-234.625 -3291.63)"/>
  <path class="cls-1" d="M612.223,3370.35l2.132-2.12,0.3-10.03h1.523l0.3,9.72,1.827,2.13,3.656-2.73,1.523,2.12-4.569,3.04-0.914,5.77,2.741,6.08-1.827,1.52-2.742-6.69h-1.523L611,3385.24l-1.523-.91,3.655-6.68L611,3372.48l-3.35-2.73,1.523-2.13Z" transform="translate(-234.625 -3291.63)"/>
</svg>
